<?xml version="1.0" encoding="utf-8"?>
<!-- Generator: Adobe Illustrator 21.1.0, SVG Export Plug-In . SVG Version: 6.00 Build 0)  -->
<svg version="1.1" id="Layer_1" xmlns="http://www.w3.org/2000/svg" xmlns:xlink="http://www.w3.org/1999/xlink" x="0px" y="0px"
	 viewBox="0 0 690 120" style="enable-background:new 0 0 690 120;" xml:space="preserve">
<style type="text/css">
	.st0{fill:#FFFFFF;}
</style>
<g>
	<path class="st0" d="M77.3,33.4H64c-4.6,0-7.9,2.1-9.9,6.2l-1.8,3.7l1.8-19.9h62.6l1.7,19.9c-1.5-3.9-3.4-6.5-5.4-7.9
		c-2.1-1.4-4.8-2-8.2-2H93.4v50.9c0,3.7,0.5,6.7,1.6,8.9c1.1,2.2,2.4,3.3,4,3.5H71.7c1.6-0.2,3-1.3,4-3.4c1.1-2,1.6-5,1.6-9V33.4z"
		/>
	<path class="st0" d="M155,23.4h13l24.2,59.5c3.1,7.9,6.6,12.5,10.5,13.8h-29.6c1.2-0.1,2.1-0.7,2.9-1.5c0.8-0.9,1.2-2.1,1.2-3.6
		c0-1.1-1.3-5.2-4-12.2h-28.1c-2.3,6.2-3.4,10.1-3.4,11.7c0,1.8,0.5,3.1,1.4,4.1c0.9,1,2,1.5,3.1,1.7h-24.6c1.5-0.2,3.1-1.5,5-4
		c1.9-2.4,3.6-5.8,5.3-10.1L155,23.4z M169.4,69.7L159,42.6l-10.2,27.1H169.4z"/>
	<path class="st0" d="M213.3,36.1c0-7-2.2-11.3-6.7-12.8h32.2c7.8,0,14.1,2.1,18.9,6.2c4.7,4.1,7.1,9.2,7.1,15.3
		c0,5.1-1.6,9.6-4.8,13.4c-3.2,3.8-7.6,6.1-13.1,6.8c1.9,1.2,3.7,3.3,5.5,6.4l9.8,16.9c1.4,2.5,3,4.5,4.8,5.9
		c1.8,1.5,3.4,2.2,4.8,2.3h-22.3l-12.2-22.6c-1.3-2.5-2.5-4.2-3.5-5c-1-0.8-2.3-1.3-3.7-1.3h-1.5v16.6c0,2.8,0.3,5.1,0.9,6.8
		c0.6,1.8,1.3,3.1,2.1,3.9c0.8,0.8,1.7,1.3,2.6,1.5h-26.5c1-0.1,1.9-0.6,2.8-1.5c0.9-0.8,1.6-2.2,2.2-4c0.6-1.8,0.8-4.1,0.8-6.8
		V36.1z M236,57.9c4.1,0,7.3-1.1,9.6-3.4c2.3-2.3,3.5-5.4,3.5-9.2c0-3.4-1.2-6.3-3.6-8.5c-2.4-2.2-5.6-3.4-9.6-3.4h-7.6v24.5H236z"
		/>
	<path class="st0" d="M311.6,33.4h-17.7c-3.2,0-5.7,0.3-7.6,0.9c-1.9,0.6-3.5,1.6-4.7,2.9c-1.2,1.3-2.4,3.7-3.5,7.3V23.4h56.9
		l-35.4,63.1h20.5c4.8,0,8.5-1,11.1-3.1c2.6-2.1,4.7-5.2,6.4-9.4l-2.2,22.7h-59.4L311.6,33.4z"/>
	<path class="st0" d="M374.3,23.4h13l24.2,59.5c3.1,7.9,6.6,12.5,10.4,13.8h-29.6c1.2-0.1,2.1-0.7,2.9-1.5c0.8-0.9,1.2-2.1,1.2-3.6
		c0-1.1-1.3-5.2-4-12.2h-28.1c-2.3,6.2-3.4,10.1-3.4,11.7c0,1.8,0.5,3.1,1.4,4.1c0.9,1,2,1.5,3.1,1.7h-24.6c1.5-0.2,3.1-1.5,5-4
		c1.9-2.4,3.6-5.8,5.3-10.1L374.3,23.4z M388.7,69.7l-10.5-27.1L368,69.7H388.7z"/>
	<path class="st0" d="M432.8,36.3c0-2.2-0.5-4.1-1.6-5.8c-1.1-1.7-2.4-3.2-4.1-4.5c-1.7-1.3-3.1-2.2-4.3-2.6h23.3l34.5,43.2V35.5
		c0-2.6-0.3-4.8-0.8-6.4c-0.6-1.6-1.2-2.8-1.9-3.7c-0.7-0.8-1.8-1.5-3.3-2h23.9c-1.7,0.3-3.1,1.5-4.1,3.6c-1.1,2.1-1.6,5-1.6,8.5
		v61.2h-11.4c-2.6-6.6-6.6-13.1-11.8-19.4L445,47.3v37.3c0,2.7,0.3,4.9,1,6.7c0.7,1.7,1.5,3,2.6,3.8c1.1,0.8,2.1,1.3,3,1.5h-24.4
		c1-0.1,1.9-0.7,2.8-1.5c0.9-0.9,1.6-2.2,2.1-3.9c0.5-1.7,0.8-3.9,0.8-6.6V36.3z"/>
	<path class="st0" d="M511.9,35.7c0-3.2-0.6-6-1.8-8.2c-1.2-2.2-2.9-3.6-5.1-4.1h49.8v19.6c-1-3.5-2.6-6-4.8-7.4
		c-2.2-1.4-5.1-2.1-8.6-2.1h-13.9v21.2h12.1c4.6,0.1,7.6-1.2,8.8-3.7v17.4c-0.1-1-0.9-1.8-2.4-2.5c-1.4-0.7-3.5-1.1-6.2-1.1h-12.3
		v21.9h15c4.6,0,8.1-0.8,10.5-2.3c2.4-1.5,4.6-4.2,6.7-8.1l-3.5,20.5h-50.3c1-0.1,1.9-0.7,2.8-1.6c0.9-0.9,1.6-2.3,2.3-4.1
		c0.6-1.8,0.9-4.3,0.9-7.4V35.7z"/>
	<path class="st0" d="M572.6,35.7c0-3.2-0.6-6-1.7-8.2c-1.1-2.2-2.8-3.6-5.1-4.1h34c11.3,0,20.4,3.3,27.4,9.8
		c7,6.5,10.5,15.2,10.5,26.1c0,11.3-3.5,20.4-10.5,27.2c-7,6.8-16.5,10.2-28.5,10.2h-32c1.9-0.3,3.4-1.6,4.5-4
		c1.1-2.4,1.6-5.6,1.6-9.6V35.7z M599.2,86.5c6.6,0,11.9-2.5,15.8-7.4c3.9-4.9,5.9-11.3,5.9-19c0-8.6-2.2-15.2-6.5-19.8
		c-4.4-4.6-10.5-6.9-18.3-6.9h-7.6v53.1H599.2z"/>
</g>
</svg>
